<svg id="SvgjsSvg1000" xmlns="http://www.w3.org/2000/svg" version="1.1" xmlns:xlink="http://www.w3.org/1999/xlink" xmlns:svgjs="http://svgjs.com/svgjs" width="27" height="112" viewBox="0 0 27 112"><title>Leg</title><desc>Created with Avocode.</desc><defs id="SvgjsDefs1001"><linearGradient id="SvgjsLinearGradient1009" gradientUnits="userSpaceOnUse" x1="277.33299999999997" y1="425.684" x2="277.33299999999997" y2="314.784"><stop id="SvgjsStop1010" stop-opacity="0" stop-color="#000000" offset="0"></stop><stop id="SvgjsStop1011" stop-opacity="0" stop-color="#000000" offset="0.4"></stop><stop id="SvgjsStop1012" stop-opacity="0.3" stop-color="#000000" offset="1"></stop></linearGradient></defs><path id="SvgjsPath1007" d="M277.333 314.784C284.403 314.784 290.13300000000004 320.515 290.13300000000004 327.584L290.13300000000004 412.884C290.13300000000004 419.95300000000003 284.403 425.684 277.333 425.684C270.264 425.684 264.533 419.95300000000003 264.533 412.884L264.533 327.584C264.533 320.515 270.264 314.784 277.333 314.784Z " fill="#ffffff" fill-opacity="1" transform="matrix(1,0,0,1,-264,-314)"></path><path id="SvgjsPath1008" d="M277.333 314.784C284.403 314.784 290.13300000000004 320.515 290.13300000000004 327.584L290.13300000000004 412.884C290.13300000000004 419.95300000000003 284.403 425.684 277.333 425.684C270.264 425.684 264.533 419.95300000000003 264.533 412.884L264.533 327.584C264.533 320.515 270.264 314.784 277.333 314.784Z " fill="url(#SvgjsLinearGradient1009)" transform="matrix(1,0,0,1,-264,-314)"></path></svg>